<!--?xml version="1.0" encoding="utf-8"?-->
<!-- Generator: Adobe Illustrator 22.1.0, SVG Export Plug-In . SVG Version: 6.00 Build 0)  -->
<svg version="1.1" id="_x30_" xmlns="http://www.w3.org/2000/svg" xmlns:xlink="http://www.w3.org/1999/xlink" x="0px" y="0px" viewBox="0 0 800 472.551" style="enable-background:new 0 0 800 472.551;" xml:space="preserve">
<g>
	<path class="st0" d="M791.865,121.82c-14.379-19.535-5.134-25.702-12.335-28.78c-7.178-3.083-8.223-6.172-5.133-13.362
		c3.089-7.196,4.123-9.257,0-12.341c-4.111-3.083,0-9.25,0-18.495c0-9.257,0-27.764-25.691-31.881
		c-25.702-4.105-22.624-12.328-20.557-15.417c2.044-3.084-13.368,14.396,0,18.512c13.356,4.117,26.724,7.195,22.613,15.418
		c-4.112,8.223-13.357,13.368-7.201,14.396c6.167,1.028,6.167,4.106,3.089,10.273c-3.089,6.167-6.167,16.445-2.056,17.473
		c4.111,1.028,0,14.396,7.19,14.396c7.201,0,13.356,1.028,17.479,4.105c4.111,3.09,13.601,22.758,16.445,37.015
		c2.056,10.273-1.022,50.365-21.59,50.365c-9.768,0-18.213-13.346-29.614-23.969c-0.011-0.194-0.011-0.377-0.033-0.583
		c-0.088,0.117-0.167,0.211-0.255,0.322c-1.967-1.816-4.034-3.556-6.201-5.122c-0.1-0.523-0.211-1.079-0.311-1.662
		c-0.311,0.344-0.6,0.617-0.878,0.844c-1.411-0.95-2.845-1.822-4.334-2.612c-0.589-1.733-1.011-3.767-1.545-5.155
		c-3.922,6.006-6.411-1.845-7.478-6.456c-2.134,6.001-5.701,3.689-9.257-3.234c-0.711,3.695-4.267,6.467-6.056,4.156
		c-0.345,3.234-3.201,7.384-8.19,2.767c-0.7,8.312-3.2,11.54-9.245,5.539c1.789,3.3,0.456,8.973-0.434,11.929
		c-0.544,0.695-1.089,1.411-1.611,2.15c-0.777-0.273-2.188-1.073-4.711-3.006c1.167,2.2,1.045,5.839,0.777,9.435
		c-12.467,23.107-16.39,59.148-22.668,81.472c-9.256,32.897-37.014,44.209-41.126,12.34c0,0,3.09-46.254-7.188-69.905
		c-1.056-2.411-2.145-4.868-3.312-7.345c1.49-2.011,3.312-2.933,3.312-2.933s-0.023-0.006-5.212-1.039
		c-1.4-2.806-2.923-5.589-4.567-8.328c0.345-2.667,0.633-6.268,0.178-11.19c-2.078,2.311-3.923,3.345-5.556,3.267
		c-1.733-2.239-3.6-4.395-5.622-6.44c-0.678-1.795-1.289-3.934-1.833-6.422c-1.156,0.977-2.178,1.611-3.1,1.972
		c-2.178-1.739-4.501-3.35-7.034-4.801c-1.067-2.533-1.889-5.45-2.889-7.451c-7.534,8.907-12.345-2.739-14.39-9.595
		c-4.123,8.912-10.968,5.478-17.824-4.795c-1.367,5.484-8.211,9.595-11.656,6.168c-0.678,4.795-6.156,10.962-15.757,4.106
		c-0.567,5.183-1.767,9.017-3.8,11.084c-1,0.506-1.989,1.039-2.956,1.589c-2.7,0.511-6.312-0.806-11.056-4.445
		c2.078,2.984,1.956,7.245,1.167,11.124c-3.178,2.5-6.178,5.244-9.012,8.173c-1.378-0.695-3.067-1.611-5.178-2.845
		c1.167,1.69,1.678,3.956,1.811,6.484c-12.679,14.496-21.369,32.63-25.802,49.371c-9.246,34.947-33.914,105.875-60.649,90.457
		c0,0-13.357-5.139-13.357-37.009c0-17.452,3.701-52.787-4.111-84.568c0.978-3.628,2.156-7.061,2.734-9.661
		c-8.912,0.683-7.534-9.595-4.1-16.451c-6.178,3.428-6.867-6.856-8.235-13.018c-6.845,4.801-10.967-2.739-10.278-10.284
		c-15.756,4.117-13.023-4.106-12.345-17.13c-7.533,11.651-19.179,7.201-23.291-1.366c-6.167,6.162-13.712,0.683-15.079-8.229
		c-13.023,15.08-19.19,3.429-21.246,0c-2.044,2.745-6.856,4.801-10.279-5.478c-2.544,4.673-12.212,11.19-19.189,15.479
		c-3.567,0.5-7.057,1.161-10.457,1.956c1.455-7.312-0.111-11.607-2.3-6.156c-2.389,5.912-4.156,5.445-14.731,10.812
		c-2.355,1.189-4.312,2.029-5.995,2.667c3.14-3.172,6.184-6.901,8.451-9.856c8.075-1.611,18.188-14.223,18.188-14.223
		s-12.026,10.729-26.344,11.579c1.889-1.717,3.689-3.1,5.256-3.95c7.567-4.072,18.043-22.701,18.043-22.701
		s-5.245,8.728-19.209,17.462c-4.545,2.838-9.073,6.85-13.14,10.962c-2.056,0.922-4.056,2.155-5.984,3.583
		c0.734-2.222,1.506-4.95,2.222-8.295c2.867-13.59,16.662-28.341,23.735-40.375c7.086-12.045,11.032-33.347,10.721-43.476
		c-0.3-10.122-3.801-10.455-4.312-2.795c-0.478,7.656-1.881,11.59-8.993,29.992c-7.095,18.39-22.068,26.263-29.835,37.092
		c-7.75,10.829-15.04,29.241-19.196,28.336c-4.139-0.9-7.522,6.795-7.522,6.795c1.806-5.878-0.528-12.657-0.528-12.657
		c-0.023,6.367-6.651,14.757-6.651,14.757c-3.834-4.106-3.879,2.044-3.879,2.044c-0.333-3.789-2.522-2.34-2.7-4.217
		c-0.05-0.628,0.05-1.617,0.239-3.1c2.867-3.006,5.928-5.845,8.573-8.006c7.545-6.167,12.334-19.19,12.334-19.19
		s-7.539,13.707-19.179,18.502c-0.255,0.111-0.489,0.244-0.745,0.356c0.217-2.2,0.428-4.767,0.594-7.762
		c0.679-12.123,6.356-33.575,7.701-38.125c1.35-4.556,6.622-14.968,8.05-25.246c1.422-10.29-4.994-17.341-3.766-9.834
		c1.239,7.512-2.062,13.934-9.09,26.602c-7.005,12.679-6.034,10.701-7.539,13.368c-1.511,2.667-2.639,9.739-4.956,16.301
		c-2.334,6.551-9.401,31.93-9.401,31.93s3.978-0.994-2.256,0.834c-6.228,1.816-4.194,7.339-4.911,12.49c0,0-0.278,7.839-4.828,8.873
		c-3.706,0.85-6.801,1.639-10.073,4.789c-2.1-3.75-5.211-9.106-5.106-7.806c0.128,1.356,1.494,7.051,2.378,11.05
		c-0.106,0.145-0.2,0.3-0.289,0.467c-2.133-1.083-4.039-1.961-4.85-2.111c-1.094-0.2,0.922,2.694,3.595,5.834
		c-0.028,0.2-0.05,0.4-0.072,0.606c-2.644,0.216-6.578-0.278-6.578-0.278s3.383,1.745,6.517,2.828
		c0.178,3.189,1.061,6.095,1.216,7.784c0.261,3.161,3.967,5.378-1.2,12.812c-3.211,4.612-7.533,7.34-12.034,6.129
		c-1.795-0.478-6.345,0.55-7.272,3.161c-0.945,2.645-6.396-0.061-6.635,3.762c0,0-3.05-1.629-6.15-3.912
		c-3.106-2.267-3.494-6.667-13.051-3.3c-8.339,2.939-7.845,11.334-10.912,14.607c-10.207-5.245-23.135-4.762-31.863-4.267
		c-11.401,0.6-19.88,2.184-20.268-9.862c-0.395-12.029,13.101-17.751,19.645-19.835c12.957-4.15,18.618,3.145,36.987,3.089
		c14.689-0.066,29.029-8.434,33.486-15.529c7.295-11.65-7.956-17.24-7.956-17.24c22.38,13.168-12.735,34.625-39.665,26.035
		c-8.489-2.711-16.451-2.995-23.368-1.511c-14.996,3.206-24.98,14.74-24.358,27.93c0.934,19.284,33.147,9.267,44.848,10.695
		c2.912,0.361,5.568,1.634,8.007,3.306c-3.634,3.072-5.829,9.417-1.839,17.724c2.456,5.139,7.072,6.367,12.284,4.65
		c0.617,2.806,1.5,5.567,2.74,6.712c2.933,2.694,3.655,0.661,2.472-2.667c-0.955-2.645-0.177-5.378,1.462-7.023
		c0.816-0.35,1.678-0.695,2.472-0.928c1.183,1.128,0.706,5.973,2.123,5.451c1.751-0.639-0.905-5.323,1.723-6.045
		c0.194-0.061,0.333-0.022,0.511-0.038c0.677-0.012,1.416,0.139,2.127,0.233c2.411,1.228,2.389,5.439,4.022,4.133
		c1.083-0.85,1.079-1.989,1.161-2.933c1.028,0.339,1.95,0.566,3.112,1.028c0.35,0.145,0.756,0.283,1.133,0.422
		c1.145,3.122,1.633,7.773,0.756,10.278c-1.439,4.062,3.689,1.156,4.523-4.805c0.178-1.328,0.361-2.59,0.478-3.823
		c5.495,1.033,11.945,0.428,17.718-6.123c1.078-1.256,2.345-2.322,3.717-3.262c3.322,1.467,6.84,5.028,10.012,12.035
		c-5.373,6.083-13.323,11.878-19.235,12.828c-6.64,1.078-13.551,14.445-21.313,13.162c-7.739-1.294-2.728,4.662,4.322,3.056
		c7.045-1.6,10.912-8.806,16.257-9.273c5.345-0.461,11.807-3.489,16.373-7.811c2.034-1.939,4.379-3.106,7.073-3.823
		c0.4,0.956,0.8,1.934,1.234,2.945c-0.227,0.422-0.417,0.806-0.633,1.211c-0.4-2.105-0.811-3.217-1.928-1.333
		c-0.884,1.516-1.044,3.867-0.916,6.318c-0.817,1.25-1.8,2.661-2.862,4.128c-0.627-3.362-0.888-6.001-2.344-3.523
		c-1.072,1.822-1.134,4.834-0.828,7.817c-0.95,1.261-1.9,2.539-2.895,3.823c-0.589-3.239-0.866-5.662-2.278-3.262
		c-1.017,1.739-1.134,4.556-0.878,7.396c-1.055,1.378-2.072,2.716-3.044,3.994c-1.695-4.617-1.35-11.289-3.4-7.8
		c-1.656,2.828-0.933,8.467-0.095,12.507c-1.055,1.489-1.905,2.728-2.484,3.695c-0.16-0.066-0.322-0.145-0.516-0.206
		c-2.995-1.022-4.006,3.884,0.1,6.373c1.422,0.85-1.039,1.406,0.549,6.339c1.589,4.951,7.406,5.073,11.268,2.823
		c0,0,2.878,1.345,7.478,0.945c4.611-0.4,6.883,0.827,10.834-7.151c2.028-4.083,5.183-9.445,9.523-15.218
		c12.317,19.345,30.369,36.097,57.126,31.691c45.823-7.578,28.153-74.967,84.927-63.605c0,0-18.913-9.85-32.97,0.389
		c-14.045,10.223-13.612,25.568-32.355,45.27c-18.74,19.702-47.592,11.462-62.777-6.906c-3.5-4.228-6.628-8.356-9.484-12.396
		c3.223-3.766,6.867-7.578,11.073-11.228c10.351-9.029,26.235-9.145,41.726-22.368c2.061,1.111,7.417,3.311,14.39,0.972
		c8.995-3,2.85-9.173,12.396-9.623c0,0-6.917-2.256-10.023,3.233c-2.2,3.917-8.44,4.312-12.768,1.706
		c1.128-1.15,2.239-2.367,3.35-3.678c3.89-0.089,8.312-0.955,12.473-3.65c10.707-6.928,13.865-6.928,18.91-6.928
		c0,0-13.243-0.634-20.177,3.144c-2.423,1.322-4.995,2.239-7.534,2.734c0.128-0.194,0.273-0.372,0.417-0.561
		c4.883-2.517,9.206-5.228,13.073-8.051c8.375,1.706,14.221,2.495,14.221,2.495s64.76-28.791,63.727,12.329
		c-0.389,15.279-1.077,24.168-1.767,30.858c-1.222,11.751-1.222,15.673,7.934,28.769c-8.212,20.557-6.167,28.785,0,39.059
		c-0.011,0.221-0.033,0.416-0.044,0.633c-2.578-0.916-5.445-1.439-8.323-1.233c-7.078,0.517-9.623,6.889-10.29,12.101
		c-0.667,5.206-5.634,17.463-11.423,19.335c-5.8,1.883-11.834,4.783-14.534,2.555c-2.688-2.233-7.045-4.311-9.112-6.928
		c-2.088-2.622-7.1-6.45-10.578-2.972c-3.479,3.489-5.711,6.178-3.989,10.339c0,0-9.431,3.723-4.811,13.896
		c0,0,4.5-10.223,8.689-9.79c0,0,0.856,5.556,5,3.839c4.168-1.728,11.635-1.605,13.835,0.5c2.189,2.111-0.278,5.839-3.567,6.151
		c-3.278,0.316-5.945,0.233-10.323,2.983c-4.389,2.728-6.123,5.551-2.712,11.701c0,0-3.433,5.639,3.534,12.607
		c0,0,0.255-12.807,2.811-12.218c2.545,0.589,6.623,1.528,8.334-1.294c1.722-2.812,0.088-2.667,3.845-5.012
		c3.756-2.345,9.557-4.229,11.89-0.472c2.356,3.755,0.4,7.589,7.256,8.095c0,0,7.356,0.633,5.756,9.912
		c0,0,6.846-6.462,2.067-11.318c0,0,5.011-3.134,2.278-7.517c-3.778-6.017-6.312-5.206-8.9-7.939
		c-2.59-2.74,2.822-5.251,2.233-9.679c-0.589-4.422,5.167-8.451,8.923-10.806c3.756-2.35,4.145-8.69,8.056-9.395
		c2.689-0.483,4.856,1.205,8.757,3.989c2.355,3.033,5.189,5.051,7.689,6.722c-2.056,14.39,8.223,28.786,20.557,30.847
		c2.045,9.24,19.524,20.552,45.237,14.38c18.701,3.128,30.324,0.316,41.114-7.495c12.579,3.994,16.301,1.199,22.824,1.927
		c6.689,0.745,7.434-2.978,8.922,9.663c0,0-12.645,14.862-17.09,14.862c-4.466,0-1.5-4.462-6.689-2.973
		c-5.201,1.484-9.656,3.717-9.656,3.717s-5.223,3.711-9.667,11.14c-4.456,7.428,0.734,7.428,0.734,7.428s-1.479,20.074,5.955,21.558
		c0,0,0-17.835,2.978-18.579c2.956-0.745,3.7,5.2,6.678,1.489c2.978-3.723,2.234-7.439,5.201-10.406
		c2.966-2.978,8.911-2.978,8.911-2.978s2.978,2.978,2.233,5.945c-0.744,2.972-2.233,8.917-4.467,11.895
		c-2.212,2.978,0.744,7.434,0.744,7.434s5.212,0.744,5.212,2.972c0,2.228-3.723,11.884-5.956,13.374c0,0,11.901-6.684,12.645-14.862
		c3.712-1.484,6.679-3.718,5.2-8.918c-1.489-5.201,0-8.178,0-10.406c0-2.228,2.978-8.917,7.434-5.945
		c4.456,2.972,10.39,8.917,9.656,11.896c-0.744,2.967-3.722,5.945-0.744,8.172c2.978,2.228,4.456,5.945,0,14.863
		c0,0,6.678-3.717,7.433-14.123c0,0,10.401-2.967,5.934-10.401c-4.456-7.434-4.456-4.462-5.934-10.406
		c-1.489-5.94-5.201-4.456-10.412-10.401c-5.189-5.945-8.912-9.656-6.678-15.606c2.222-5.946,5.2-20.063-2.233-20.808
		c-7.423-0.744-10.401,1.49-18.579-7.428c-0.667-0.728-1.311-1.45-1.945-2.178c9.167-11.245,15.746-24.874,28.636-58.705
		c16.445-43.176,26.735-86.357,49.337-86.357c22.624,0,20.568,8.229,22.624,22.613c0,0-7.201,14.396,3.078,22.624
		c-3.078,8.217-3.078,25.702,6.178,33.92c-3.089,11.306,0,22.612,7.19,26.724c-1.022,10.279,9.245,15.424,15.423,17.474
		c5.134,4.112,11.301,6.167,19.523,3.089c6.179,5.145,15.413,5.145,26.736,1.023c11.245-4.078,22.479-1.073,34.725-19.207
		c2.099,3.172,5.411,6.162,10.245,6.945c9.968,1.605,23.914-4.295,26.302-0.639c2.378,3.644,3.867,4.566,7.212,4.289
		c3.323-0.272,4.5,2.167,1.134,7.262c-3.378,5.106-5.868,12.329-8.912,15.323c-3.067,3.001-2.501,7.234,2.633,8.795
		c0,0,3.233,8.19,10.5,6.446c0,0-7.768-9.14-5.334-10.323c2.434-1.189,6.668-2.344,5.489-4.777c-1.189-2.434-0.5-9.673,1.923-10.863
		c2.422-1.189,5.133,0.956,5.1,3.984c-0.044,3.017-1.589,6.934,2.945,7.873c0,0,5.056,8.217,11.445,4.355
		c0,0-7.212-5.517-5.989-7.312c1.234-1.806,5.767-2.056,2.778-5.722c-2.989-3.65-5.967-7.307-5.634-10.623
		c0.345-3.329,0.645-4.834,2.489-7.835c1.845-3.011,7.601-4.462,9.712-4.133c2.111,0.316,3.623,1.239,5.756-0.856l1.811-0.584
		c0,0,6.067-0.549,9.968,1.611c0,0-2.356-6.077-8.701-7.039c0,0-5.656-8.812-14.468-2.561c-8.834,6.262-5.811,5.684-8.834,6.262
		c-3.023,0.572-4.812-1.861-8.446-1.3c-3.634,0.572-3.911-2.145-6.612-3.684c-2.712-1.533-0.566-3.633-10.568-1.011
		c-10,2.617-12.979-1.644-11.734-4.651c1.234-3.005,11.879-10.461,6.223-19.274c-1.211-1.905-3.244-3.011-5.689-3.355
		c5.745-10.985,10.712-24.975,13.456-45.048c6.168-45.231,14.39-63.732,29.802-60.649c15.424,3.083,14.402,24.674,39.07,13.373
		C793.932,200.976,806.266,141.355,791.865,121.82z M144.728,219.838c-0.317,1.006-1.028,2.567-1.928,4.389
		c-3.823,0.739-8.04,2.011-11.012,4.144c-1.733-4.905-4.095-8.606-6.873-11.145c6.578-2.188,13.99-2.795,19.852-3.394
		C145.195,215.216,145.506,217.272,144.728,219.838z M212.272,131.187c-1.461,0.745-2.928,1.617-4.395,2.539
		c2.172-3.329,4.889-6.901,7.717-10.14c4.478-1.623,8.956-2.444,12.201-2.75C224.451,123.792,219.389,127.571,212.272,131.187z"></path>
</g>
</svg>
