<!--?xml version="1.0" encoding="utf-8"?-->
<!-- Generator: Adobe Illustrator 22.1.0, SVG Export Plug-In . SVG Version: 6.00 Build 0)  -->
<svg version="1.1" id="_x33_" xmlns="http://www.w3.org/2000/svg" xmlns:xlink="http://www.w3.org/1999/xlink" x="0px" y="0px" viewBox="0 0 449.969 800" style="enable-background:new 0 0 449.969 800;" xml:space="preserve">
<g>
	<path class="st0" d="M445.977,632.011c-9.828-56.868-50.229-91.774-24.899-150.236c19.249-26.125,6.875-23.375-8.25,2.75
		c-10.516,18.167-17.874,37.124-9.271,83.529c7.874,42.409,24.438,139.667-69.102,147.465
		c-93.541,7.793-135.456-63.04-135.456-143.797c0-66.119,50.519-113.3,114.831-160.07c64.301-46.771,145.693-162.33,79.985-245.032
		c-51.11-64.336-129.924-45.589-129.924-45.589c-2.75,1.924-5.822-2.602-8.239-1.882c-2.417,0.722,5.091-4.595,7.971-7.383
		c2.889-2.791-0.398-2.192-0.398-2.192c-13.728,2.497-23.159,9.55-29.024,15.705c-1.644-0.134-2.202-1.842-0.796-5.755
		c2.063-5.747,0.097-5.669-4.597,1.112c-3.115,4.514-15.113,8.166-18.1,10.522c2.449-9.053,7.143-16.54,7.143-16.54
		c-20.753,6.717-29.411,25.768-29.616,20.353c-0.204-5.416,3.771-9.251,3.771-9.251c0.075-3.905,12.804-28.023,12.804-28.023
		s1.955,2.054,10.011-4.942c7.949-6.888,12.933-7.839,21.162-8.728c8.239-0.886,10.023-3.945,18.24-10.114
		c8.217-6.173,0.398-9.879-5.167-1.86c-5.553,8.019-25.265,5.836-31.635,9.33c-6.37,3.488-8.078-1.649-6.789-7.337
		c1.311-5.685,18.304-32.137,22.494-47.683c4.179-15.56-2.396-34.616-4.802-17.821c-2.331,16.282-21.13,38.483-29.132,56.696
		c-5.307,3.271-12.718,8.61-15.254,10.074c-4.189,2.425-1.6-15.313-0.204-27.349c1.418-12.025-6.166-22.187-5.21-13.777
		c0.967,8.395-1.354,19.841-3.416,24.972c-2.073,5.119-1.976,16.831-4.028,25.859c-1.214,5.43-8.272,29.025-13.696,46.991
		c-0.032,0.005-0.032,0.011-0.054,0.016c-5.135,1.713-11.999,15.412-11.999,15.412c-15.136-10.478-29.873,6.996-34.181,13.237
		c-4.329,6.233-2.063,14.383-0.011,17.12c2.052,2.741-7.455,14.598-7.455,14.598s-21.936,16.446-25.029,20.903
		c-3.083,4.453-10.205-0.481-15.125,6.647c-4.812-0.688-7.959,7.672-14.544,5.747c-6.564-1.918-7.326,6.789-16.919,5.422
		c-9.592-1.375-12.332-16.438-23.643-5.835c-11.314,10.629,0.902,17.759-5.608,29.073c-6.518,11.301,7.874,13.354,7.874,13.354
		s6.155,8.223,18.218,6.04c3.652-0.663,6.015-2.065,7.788-3.679c3.727,4.372,9.7,9.152,16.381,10.578
		c5.457,1.165,5.049-1.018,0.935-3.688c-3.029-1.966-7.541-10.277-9.711-16.086c0.064-0.016,0.108-0.07,0.172-0.083
		c1.418-0.258,2.653-0.798,4.028-1.354c2.309,9.023,10.001,16.825,26.983,19.424c44.45,6.781,50.648-50.815,77.138-50.041
		c3.395,0.102,6.252,0.553,8.69,1.308c-2.202,5.475-6.778,12.874-10.269,19.124c-6.66,4.006-14.158,5.653-20.356,15.841
		c-10.195,16.766-10.388,27.432-21.978,29.202c-11.57,1.784-13.148-2.532-20.463,13.178c-7.316,15.724-3.459,15.135,4.071,6.681
		c7.508-8.454,15.168-12.057,24.341-13.771c9.152-1.708,15.877-21.288,21.495-28.236c1.762-2.161,4.071-4.433,6.66-6.654
		c-0.505,2.234-0.698,3.657-0.698,3.657s-4.534,17.956-8.787,20.278c-3.094,1.698-5.446,7.391-7.003,12.56
		c-0.881-0.499-1.612-0.999-1.988-1.455c-1.719-2.079-2.932-2.181-1.954,0.695c0.591,1.745,1.643,3.338,2.846,4.74
		c-0.108,0.457-0.226,0.934-0.322,1.351c-0.656,2.887-2.535,4.592-4.318,6.198c-3.051-1.114-6.198-2.645-7.23-3.891
		c-1.901-2.317-3.243-2.43-2.159,0.774c1.075,3.177,3.448,5.94,5.854,7.938c-0.054,0.188-0.14,0.346-0.171,0.548
		c-0.301,2.122-1.192,3.843-2.342,5.333c-4.501-1.329-10.355-3.861-11.977-5.835c-2.385-2.898-4.072-3.038-2.707,0.967
		c1.493,4.431,5.016,8.215,8.357,10.736c-2.632,2.264-4.254,4.428-1.88,7.86c4.361,6.293,4.523-0.821,9.592,1.37
		c5.082,2.194,5.887,6.717,13.428,5.344c7.54-1.367,4.382-10.143,7.949-24.803c3.567-14.67,16.317-21.658,28.992-41.872
		c2.46-3.951,5.274-7.488,8.272-10.774c2.879,14.155,25.028,39.812,48.113,8.418c17.306-23.524,38.295-39.028,45.965-14.606
		c0,0-1.579-19.183-17.466-16.194c-12.493,2.358-22.376,14.558-33.526,28.695c-13.911,17.652-36.458,12.095-38.348-8.461
		c-0.075-0.823-0.151-1.636-0.237-2.463c11.376-10.984,24.105-18.852,30.668-28.335c3.287-4.745,6.596-9.791,9.453-14.98
		c7.391-9.748,14.265-13.873,14.265-13.873s8.304-9.558,33.644-3.712c25.329,5.846,70.145,17.536,62.357,68.203
		c-7.799,50.672-98.869,95.859-179.283,179.286C43.423,562,80.075,788.262,306.128,798
		C384.072,796.056,465.226,743.383,445.977,632.011z M114.707,255.479c-15.113,21.1-42.86,26.151-57.19,9.383
		c-2.041-2.371-3.437-4.649-4.362-6.838c2.46-0.448,5.661-0.585,10.301,0.081c2.159,0.309,3.975,0.172,5.651-0.137
		c1.525,1.764,3.298,3.368,5.339,4.493c3.76,2.073,3.953,0.378,1.514-2.516c-0.645-0.755-1.235-2.143-1.761-3.832
		c4.382-2.67,7.122-7.125,10.494-9.658c0.569-0.424,1.267-0.907,1.987-1.399c1.891,2.938,4.436,5.803,7.616,7.557
		c3.76,2.076,3.953,0.379,1.515-2.516c-1.203-1.412-2.245-5.059-2.911-8.743c2.051-1.093,4.339-2.151,6.809-3.137
		c1.891,3.003,4.491,5.954,7.735,7.748c3.76,2.078,3.964,0.376,1.515-2.519c-1.053-1.246-1.987-4.235-2.653-7.45
		c3.792-1.042,7.809-1.776,11.966-1.869c4.791-0.121,10.452-1.464,15.973-3.405C127.081,236.399,122.269,244.925,114.707,255.479z
		 M153.27,223.463c-1.643,0.175-3.147,0.443-4.619,0.747c4.92-2.79,8.497-5.573,9.291-7.423c0,0,4.845-5.194,4.684,7.184
		C159.931,223.261,156.847,223.047,153.27,223.463z M172.23,114.69c3.931-14.891,7.97-28.633,8.776-30.943
		c0.892-2.599,9.388-8.539,15.995-13.51C190.416,84.693,178.363,102.296,172.23,114.69z"></path>
</g>
</svg>
