<!--?xml version="1.0" encoding="utf-8"?-->
<!-- Generator: Adobe Illustrator 22.1.0, SVG Export Plug-In . SVG Version: 6.00 Build 0)  -->
<svg version="1.1" id="_x34_" xmlns="http://www.w3.org/2000/svg" xmlns:xlink="http://www.w3.org/1999/xlink" x="0px" y="0px" viewBox="0 0 600.229 800" style="enable-background:new 0 0 600.229 800;" xml:space="preserve">
<g>
	<path class="st0" d="M598.729,477.716c-66.505,59.115-62.078,106.42-79.813,180.314c-15.382,64.099-147.796,100.499-198.054,65.034
		c-50.25-35.476-22.166-56.162,50.257-72.423c11.506-2.589,21.851-5.588,31.1-9.066c-0.194,1.038-0.077,1.939,0.462,2.634
		c3.935,5.064,16.17,9.385,23.745,3.649c7.569-5.736,8.57-12.053,14.79-9.955c6.215,2.087,13.111,4.026,22.772-0.422
		c0,0-10.759,4.345-12.21,13.285c-1.448,8.917-8.079,14.072-12.145,15.041c-4.06,0.97-11.275-2.326-18.011-3.58
		c-6.731-1.255-10.371-0.034-10.824,10.081c0,0-7.575,5.736-3.35,12.955c0,0,4.932-10.834,8.789-9.602c0,0,1.229,3.649,4.71,1.745
		c3.481-1.905,6.702-3.398,11.854-4.254c5.16-0.867,8.447,6.922,7.318,9.693c-1.129,2.771-3.805,8.063-8.281,8.769
		c-4.476,0.707-4.607,4.664-1.873,8.666c0,0-1.836,5.804-9.758,5.542c0,0,8.051,3.797,14.368-2.703c0,0,5.286,2.669,7.285-2.452
		c1.993-5.12,5.251-9.476,5.73-14.962c0.485-5.474,11.379-6.272,11.989-0.695c0.61,5.576-1.318,12.464,6.092,13.559
		c0,0,3.541-0.125-0.1,8.598c0,0,7.093-0.251,5.511-9.886c0,0,7.444-1.768,3.897-9.146c-3.544-7.378-13.63-10.697-15.754-16.626
		c-2.124-5.941,1.614-8.256,6.993-14.174c5.382-5.931,13.305-13.182,17.301-15.919c3.994-2.737,16.21-16.672,1.324-19.979
		c-13.208-2.93-15.369-5.987-29.321-3.033c-7.52,1.608-11.013,2.338-12.635,2.68c-0.451-0.73-1.186-1.699-2.07-2.703
		c19.739-19.386,26.749-46.8,23.414-85.985c-5.895-69.269-115.28-90.155-164.058-96.073
		c-48.772-5.902-235.005-28.087-202.484-190.657C130.202,83.086,267.656,72.74,359.288,96.388
		c62.351,16.09,94.569,60.912,101.827,103.286c-2.534-0.359-5.28-0.299-6.837-0.048c-0.795-1.445-2.506-4.558-6.194-11.258
		c-6.837-12.441-10.548-12.073-21.347-20.115c-12.164-9.063-14.722,9.194-14.186,13.98c0.536,4.792,0.23,15.477-0.736,23.383
		c-0.966,7.911-0.282,12.23-6.132,14.488c-5.853,2.253-14.907-3.184-22.767-1.055c-7.86,2.124-4.356,8.881-4.356,8.881
		c-8.282,5.08-3.872,10.588-3.872,10.588c4.214-8.422,6.423-5.671,6.423-5.671c5.641,4.869,9.575-1.069,14.174-4.234
		c4.596-3.167,11.07,5.562,7.258,9.488c-3.811,3.925-4.969,9.205-7.532,14.038c-2.557,4.841,2.894,7.076,2.894,7.076
		c-0.793,8.997,7.304,12.589,7.304,12.589c-5.349-5.804-2.172-10.959-2.172-10.959c4.786-0.535,7.692-3.21,5.31-7.045
		c-2.377-3.834-0.134-9.282,1.221-11.933c1.348-2.652,9.359-5.246,12.061-0.798c2.695,4.45,3.67,7.839,4.502,11.7
		c0.83,3.857,4.368,2.406,4.368,2.406c3.436,2.118-1.508,12.872-1.508,12.872c8.182-1.517,7.574-10.948,7.574-10.948
		c7.324-6.916,5.879-10.459,0.557-14.713c-5.328-4.254-12.496-7.552-14.405-11.236c-1.913-3.692-2.347-12.039,3.432-18.935
		c5.784-6.893,2.061-17.829,2.061-17.829c2.936,10.171,8.878,14.106,14.494,17.427c5.619,3.322,1.517,8.182,2.118,17.615
		c0.493,7.695,8.042,13.377,14.263,15.03c-1.035,3.496-2.263,6.871-3.72,10.078c-5.092,11.199-13.892,19.141-24.446,24.863
		c-0.083-0.499-0.211-0.924-0.399-1.238c-1.044-1.739-1.34,0.251-1.603,2.241c-1.721,0.869-3.438,1.736-5.24,2.497
		c-0.123-2.971-0.656-3.367-1.916-0.847c-0.462,0.924-1.175,1.685-1.922,2.318c-1.149,0.428-2.261,0.912-3.43,1.3
		c0-0.544,0-1.47,0-3.13c0-3.891-1.947-1.947-3.891,1.947c-0.621,1.246-1.804,2.318-3.107,3.233
		c-1.782,0.473-3.572,0.887-5.374,1.288c1.436-4.094,0.696-7.441,0.696-7.441s-2.432,1.944-5.351,5.838
		c-2.919,3.895-6.813,2.432-8.273,0c-1.46-2.432,4.866-6.813,1.947-6.813c-2.919,0-7.785,6.326-10.705,8.273
		c-2.92,1.947-7.783,0.484-6.323-3.895c1.46-4.379,6.323-4.864,1.944-4.864c-4.379,0-5.839,3.891-7.783,6.811
		c-1.944,2.919-4.867,3.406-8.758,2.431c-3.891-0.975,6.323-12.162,5.839-14.109c-0.485-1.947-5.354,5.838-12.652,11.19
		c-4.105,3.01-8.47,3.84-11.544,4.014c3.829-5.602,6.423-11.52,8.034-15.711c2.358-6.129,1.414-10.372-0.944-6.129
		c-2.355,4.242-3.771,3.78-12.732,7.081c-8.962,3.301-11.318,1.881-14.145,4.716c-2.837,2.816-6.138,5.81-5.662,1.101
		c0.473-4.721-0.946-4.248-0.946-4.248s3.306-2.367,6.608-12.259c3.298-9.91,15.56-19.967,22.163-28.457
		c6.602-8.49,11.321-24.056,11.788-31.602c0.474-7.543-2.351-8.017-3.304-2.358c-0.935,5.659-2.352,8.49-9.43,21.698
		c-7.071,13.205-19.805,18.08-26.878,25.624c-7.073,7.54-14.306,20.745-17.608,19.805c-3.304-0.936-6.605,4.561-6.605,4.561
		c1.887-4.248,0.473-9.436,0.473-9.436c-0.473,4.727-6.446,10.537-6.446,10.537c-2.831-3.302-3.301,1.26-3.301,1.26
		c0-2.834-1.887-1.893-1.887-3.307c0-1.414,1.414-5.189,2.831-14.146c1.417-8.963,7.547-24.528,8.961-27.824
		c1.417-3.301,6.445-10.69,8.333-18.234c1.885-7.552-2.827-13.208-2.358-7.552c0.471,5.659-2.674,10.223-9.279,19.178
		c-6.6,8.96-5.656,7.551-7.073,9.439c-1.414,1.881-2.828,7.07-5.183,11.791c-2.364,4.718-9.91,23.112-9.91,23.112
		s3.304-0.479-1.884,0.473c-5.188,0.941-3.929,5.177-4.875,8.957c0,0-0.784,5.81-4.562,6.278c-3.07,0.393-5.639,0.778-8.521,2.908
		c-1.44-2.919-3.587-7.104-3.587-6.132c0,1.02,0.707,5.337,1.135,8.361c-0.088,0.109-0.174,0.217-0.256,0.331
		c-1.662-0.941-3.147-1.719-3.798-1.882c-0.881-0.219,0.562,2.064,2.503,4.57c-0.037,0.145-0.065,0.293-0.097,0.442
		c-2.164-0.012-5.325-0.633-5.325-0.633s2.626,1.517,5.089,2.526c-0.08,2.372,0.442,4.595,0.442,5.861
		c0,2.366,2.833,4.253-1.888,9.436c-2.925,3.222-6.64,4.966-10.215,3.775c-1.42-0.468-5.191,0-6.135,1.882
		c-0.943,1.899-5.186-0.462-5.659,2.36c0,0-2.357-1.408-4.715-3.302c-2.36-1.887-2.36-5.188-10.372-3.301
		c-6.981,1.642-7.175,7.914-9.901,10.144c-7.917-4.556-18.453-5.029-25.587-5.24c-9.308-0.285-16.316,0.336-15.78-8.638
		c0.536-8.963,11.909-12.333,17.379-13.456c10.825-2.246,14.907,3.541,29.834,4.687c11.939,0.907,24.187-4.379,28.306-9.362
		c6.762-8.188-5.24-13.325-5.24-13.325c17.256,11.232-12.8,24.894-34.068,16.769c-6.708-2.56-13.165-3.29-18.887-2.64
		c-12.415,1.414-21.353,9.333-21.775,19.175c-0.618,14.385,26.274,9.037,35.685,10.856c2.335,0.451,4.407,1.568,6.275,2.971
		c-3.173,2.053-5.405,6.62-2.754,13.051c1.628,3.975,5.297,5.189,9.65,4.254c0.308,2.121,0.827,4.231,1.756,5.16
		c2.189,2.189,2.919,0.73,2.189-1.825c-0.579-2.024,0.242-4.003,1.685-5.12c0.689-0.211,1.411-0.41,2.075-0.53
		c0.887,0.918,0.154,4.488,1.349,4.191c1.459-0.365-0.365-4.014,1.824-4.379c0.162-0.029,0.268,0.006,0.416,0
		c0.547,0.04,1.146,0.199,1.719,0.308c1.871,1.072,1.549,4.197,2.974,3.342c0.936-0.565,1.009-1.408,1.155-2.105
		c0.809,0.319,1.539,0.542,2.449,0.964c0.276,0.125,0.595,0.256,0.892,0.387c0.707,2.394,0.787,5.878-0.117,7.686
		c-1.46,2.919,2.919,1.095,4.014-3.284c0.242-0.969,0.476-1.899,0.659-2.806c4.393,1.123,9.681,1.089,14.833-3.404
		c0.978-0.861,2.073-1.573,3.256-2.178c2.589,1.305,5.197,4.174,7.281,9.59c-4.801,4.174-11.674,7.96-16.54,8.285
		c-5.474,0.365-12.042,9.852-18.246,8.393c-6.204-1.46-2.554,3.284,3.284,2.554c5.838-0.73,9.488-5.838,13.867-5.838
		c4.379,0,9.852-1.824,13.866-4.744c1.79-1.3,3.775-2.024,6.018-2.377c0.254,0.735,0.518,1.488,0.792,2.264
		c-0.213,0.302-0.399,0.576-0.599,0.867c-0.179-1.592-0.436-2.446-1.468-1.118c-0.829,1.066-1.129,2.799-1.197,4.635
		c-0.753,0.873-1.651,1.848-2.626,2.88c-0.265-2.543-0.297-4.515-1.65-2.771c-0.998,1.283-1.263,3.512-1.226,5.753
		c-0.858,0.872-1.733,1.762-2.623,2.651c-0.245-2.446-0.305-4.264-1.625-2.566c-0.949,1.221-1.24,3.301-1.234,5.434
		c-0.952,0.952-1.882,1.881-2.76,2.771c-1.046-3.541-0.291-8.479-2.209-6.016c-1.545,1.99-1.351,6.226-0.958,9.282
		c-0.972,1.038-1.742,1.905-2.278,2.589c-0.134-0.063-0.254-0.132-0.413-0.194c-2.361-0.953-3.529,2.634-0.365,4.744
		c1.095,0.73-0.946,0.975,0,4.744c0.938,3.785,5.658,4.253,8.954,2.833c0,0,2.238,1.181,6.007,1.181c3.778,0,5.536,1.06,9.311-4.607
		c1.939-2.902,4.889-6.688,8.818-10.684c8.641,15.166,22.114,28.787,44.18,27.242c37.771-2.657,28.186-53.87,73.518-41.748
		c0,0-14.677-8.541-26.821-1.847c-12.142,6.688-12.877,18.114-29.503,31.536c-16.624,13.416-39.487,5.428-50.52-9.197
		c-2.551-3.375-4.798-6.642-6.822-9.829c2.879-2.583,6.115-5.183,9.787-7.623c11.306-7.543,28.645-4.174,45.673-22.573
		c35.169,6.837,64.829,12.977,133.572-6.848c30.358-8.758,52.296-22.076,67.516-38.287c22.753,8.102,45.565,13.912,42.783,23.041
		c-2.789,9.134-15.854,14.938-19.426,19.146c-3.566,4.213-6.175,14.91-6.115,18.787c0.059,3.872-2.124,11.243-5.237,11.597
		c-3.113,0.359-8.558,0.855-9.716,3.381c0,0-7.886-2.212-10.437-2.857c-2.546-0.65-8.567-4.054-10.328-4.909
		c-1.756-0.866-9.855,1.043-10.114,6.186c0,0-12.886,4.755-9.462,13.444c0,0,7.221-9.944,10.687-7.189
		c3.47,2.754,3.47,2.754,3.47,2.754s3.013,1.699,5.716-0.736c2.705-2.441,5.171-0.257,7.691,0.912
		c2.523,1.158,7.897,7.105,9.311,9.762c1.411,2.651,2.66,3.49-0.046,5.935c-2.703,2.435-9.97,13.411-11.056,14.391
		c-1.086,0.981-10.166,12.122,0.248,20.407c0,0-2.694,7.343,8.667,12.304c0,0-5.44-9.824-1.457-11.945
		c3.976-2.121,6.933,0.616,6.517-6.374c-0.419-6.99-2.372-9.146,1.599-16.182c3.972-7.019,5.699-10.543,9.299-10.354
		c3.604,0.176,3.9-0.576,5.773,3.136c1.876,3.706,6.865,7.053,6.9,11.449c0.037,4.385,1.314,9.608,10.519,6.209
		c0,0,2.067,5.006,11.569,0.838c0,0-9.998-1.277-7.754-4.778c2.24-3.495,1.832-5.576-1.204-6.768
		c-3.036-1.192-7.945-6.078-8.382-7.646c-0.436-1.579-3.133-9.453-5.331-11.887c0,0,2.708-2.441,3.854-9.864
		c1.157-7.423,13.485-21.496,15.996-25.248c2.511-3.74,35.969-17.253,22.887-33.919c-13.086-16.666-34.293-35.807-40.004-50.289
		c-1.072-2.709-3.404-4.55-6.483-5.759c6.859-17.467,8.988-36.48,7.612-55.788c-4.43-62.077-11.822-91.635-79.812-149.276
		C403.633,3.276,325.297-1.16,244.005,3.276C162.716,7.704,65.165,72.74,26.744,162.899c-38.43,90.152-38.43,187.709,38.421,257.179
		c76.862,69.464,162.582,75.365,233.528,79.801c70.944,4.431,93.092,31.109,82.769,62.077c-7.393,22.18-25.125,25.133-57.642,36.959
		c-10.579,3.843-26.162,7.549-42.423,13.114c-0.995-1.779-2.409-3.512-4.342-5.2c-2.608-2.281-13.231-3.945-20.603,4.448
		c-7.372,8.404-9.753-6.603-12.601-11.061c-2.845-4.436-7.62-8.508-8.729-14.289c-1.109-5.77-8.157-13.912-17.171-16.66
		c-9.012-2.771-15.215,3.911-18.536,10.035c-3.313,6.135-15.332,18.918-23.406,18.462c-8.066-0.444-16.915,0.251-19.186-3.797
		c-2.278-4.06-6.663-8.701-7.974-12.954c-1.314-4.242-5.679-11.38-11.659-8.746c-5.979,2.645-10.033,4.926-9.89,10.89
		c0,0-13.453,0.08-12.612,14.893c0,0,10.465-10.503,15.446-7.949c0,0-1.599,7.287,4.362,7.15c5.958-0.148,15.158,3.57,16.86,7.242
		c1.7,3.66-3.132,7.082-7.354,5.895c-4.22-1.186-7.478-2.565-14.212-1.265c-6.742,1.288-10.22,3.957-8.949,13.193
		c0,0-6.962,5.337-1.676,17.288c0,0,6.468-15.715,9.337-13.764c2.868,1.938,7.461,5.052,10.939,2.383
		c3.481-2.657,1.371-3.25,7.147-4.356c5.776-1.106,13.847-0.661,14.953,5.12c1.111,5.77-3.151,9.578,5.083,13.502
		c0,0,8.812,4.299,2.383,15.007c0,0,11.569-4.721,7.983-13.023c0,0,7.7-1.459,6.408-8.199c-1.773-9.26-5.309-9.465-7.189-14.095
		c-1.888-4.63,5.998-5.143,7.389-10.901c1.391-5.748,10.443-7.983,16.218-9.1c5.776-1.106,9.3-8.758,14.48-7.766
		c5.183,1.004,6.788,7.185,15.05,17.812c7.441,9.579,8.729,12.145,6.377,18.086c-0.738,1.858-0.895,3.866-0.527,5.861
		c-14.431,12.224-24.66,28.988-25.182,52.901c-1.474,67.987,60.601,116.76,184.753,107.888
		c124.152-8.872,155.19-78.33,152.236-150.753c-2.957-72.423,25.021-126.764,41.383-147.808
		C598.729,485.105,598.729,477.716,598.729,477.716z M264.705,334.278c0.248,1.061,0.359,2.611-0.462,4.459
		c-0.325,0.73-1.012,1.841-1.867,3.136c-3.161,0.302-6.685,0.975-9.251,2.367c-1.058-3.758-2.72-6.66-4.795-8.724
		C253.832,334.318,259.901,334.346,264.705,334.278z"></path>
</g>
</svg>
