<!--?xml version="1.0" encoding="utf-8"?-->
<!-- Generator: Adobe Illustrator 22.1.0, SVG Export Plug-In . SVG Version: 6.00 Build 0)  -->
<svg version="1.1" id="_x31__1_" xmlns="http://www.w3.org/2000/svg" xmlns:xlink="http://www.w3.org/1999/xlink" x="0px" y="0px" viewBox="0 0 800 260.677" style="enable-background:new 0 0 800 260.677;" xml:space="preserve">
<g>
	<path class="st0" d="M789.271,112.95c-6.884,7.08-37.6,32.121-64.786,23.545c-22.399-7.057-32.408-19.108-61.61-8.913
		c-22.947,8.012-27.563,31.528-48.04,34.268c-20.474,2.752-44.903-21.103-77.256-20.482c-32.359,0.626-66.049,33.346-97.254,20.374
		c-31.206-12.976-49.73-42.453-87.705-47.729c-7.903-1.102-16.673-0.257-25.981,1.584c-0.02-0.336,0.11-0.894,0.513-1.786
		c0.956-2.119,0.381-3.181,0.381-3.181s-0.691,0.643-1.963,3.471c-0.442,0.983-1.07,1.645-1.793,2.09
		c-1.069,0.232-2.145,0.474-3.227,0.727c-0.465-0.022-0.931-0.068-1.39-0.156c-2.409-0.423-7.031,2.954-5.584,1.295
		c1.444-1.645,0.752-3.113,0.752-3.113c-0.488,1.638-2.166,2.48-4.386,4.187c-2.223,1.703-4.613,0.13-6.209,1.551
		c-1.597,1.435-4.037,1.193-4.037,1.193c1.88-1.96-0.347-4.462,0.007-3.25c0.358,1.207-0.989,2.306-2.027,3.839
		c-1.041,1.537-3.451,1.099-4.93,0.838c-1.093-0.198-2.424,0.391-2.831,0.756c-0.22-0.347-0.703-0.969-0.472-1.544
		c0.351-0.893-0.003-2.1-0.706-0.325c-0.704,1.786-3.211,1.916-4.036,3.293c-0.821,1.378-3.062,0.022-3.973,0.817
		c-0.904,0.792,1.31-3.015,2.013-4.798c0.702-1.786-0.607-0.878-0.607-0.878c-3.088,2.148-5.283,4.653-6.863,7.119
		c-0.273-0.094-0.574-0.177-0.929-0.245c-2.475-0.463-2.589,1.106-3.52,2.783c-1.833,0.416-3.667,0.807-5.494,1.168
		c-0.11-0.427-0.137-0.94-0.063-1.53c0.379-2.943,3.936-4.273,0.685-2.997c-2.269,0.889-4.192,3.572-6.248,5.542
		c-3.346,0.543-6.674,0.962-9.977,1.236c0.065-0.253,0.121-0.488,0.212-0.773c2.166-6.793-1.204-6.132-1.453-4.168
		c-0.239,1.837-3.278,3.666-6.792,5.289c-2.896,0-5.759-0.145-8.585-0.444c-0.635-0.452-1.144-0.98-1.49-1.534
		c-1.202-1.949-4.68-1.11-7.934-0.173c-2.334-0.611-4.635-1.36-6.899-2.263c0.186-0.398,0.515-0.807,1.057-1.223
		c3.319-2.563,2.588-3.062-1.22-1.359c-1.323,0.593-3.153,0.582-5.002,0.253c-2.628-1.288-5.107-2.622-7.459-3.995
		c0.291-1.016,3.692,0.065-0.081-1.754c-1.772-0.857-3.626-1.295-5.188-1.526c-0.6-0.398-1.185-0.799-1.763-1.201
		c0.824-0.499,1.806-1.2,2.802-2.187c2.399-2.387-1.773-0.929-3.554-0.257c-1.779,0.665-4.286-0.756-5.443-3.392
		c-1.857-4.111-5.78-5.958-8.428-6.483c-0.369-0.379-0.741-0.756-1.103-1.132c0.376-0.09,0.925-0.133,1.755-0.098
		c2.574,0.137,3.435-0.882,3.435-0.882s-0.934-0.456-4.369-0.626c-3.427-0.174-4.809-2.874-5.331-5.535
		c-0.522-2.661-5.859-6.07-3.574-5.242c2.283,0.824,3.513-0.474,3.513-0.474c-1.88,0.148-3.426-1.24-6.076-2.842
		c-2.651-1.602-1.987-4.704-4.105-5.77c-2.123-1.071-2.846-3.688-2.846-3.688c2.773,1.154,4.458-2.151,3.354-1.301
		c-1.106,0.857-2.777-0.087-4.778-0.553c-2.001-0.448-2.522-3.106-2.844-4.743c-0.237-1.208-1.382-2.34-1.92-2.61
		c0.264-0.365,0.712-1.103,1.403-1.103c1.061,0.003,2.166-0.857,0.044-0.86c-2.126-0.007-3.26-2.545-5.017-2.838
		c-1.752-0.282-1.254-3.145-2.438-3.768c-1.183-0.611,3.637,0.141,5.759,0.145c2.127,0.007,0.66-0.976,0.66-0.976
		c-6.142-4.133-12.327-4.924-16.832-4.758c-0.58-0.661-0.159-1.518,1.821-2.484c2.906-1.422,2.135-2.119-2.158-1.273
		c-2.853,0.56-6.049,0.282-8.058,0.069c4.281-2.535,6.117-6.407,6.117-6.407c-10.371-5.12-20.697-1.074-18.775-3.211
		c1.923-2.133,4.852-2.119,4.852-2.119c1.468-1.457,15.225-5.919,15.225-5.919s-0.021,1.5,5.624,1.822
		c5.568,0.315,7.813,1.798,11.271,4.505c3.455,2.7,5.264,2.194,10.671,2.896c5.402,0.687,3.796-3.616-1.278-2.618
		c-5.073,0.995-11.756-7.118-15.473-8.146c-3.71-1.026-2.464-3.616,0.133-5.293c2.594-1.682,18.828-5.456,26.164-9.82
		c7.338-4.367,11.879-14.043,4.763-8.54c-6.903,5.323-22.253,6.816-32.024,10.782c-3.221-0.719-8.012-1.428-9.516-1.808
		c-2.493-0.625,5.042-6.414,10.028-10.474c4.982-4.046,5.852-10.713,3.112-7.159c-2.739,3.543-7.848,7.039-10.525,8.225
		c-2.681,1.183-6.972,5.67-11.086,8.341c-2.471,1.616-13.87,7.976-22.579,12.803c-0.005-0.011-0.015-0.011-0.018-0.019
		c-2.588-1.243-10.255,1.428-10.255,1.428c-1.882-9.574-13.936-8.388-17.883-7.603c-3.946,0.769-6.099,4.707-6.33,6.508
		c-0.232,1.8-8.231,2.791-8.231,2.791s-14.411-1.859-17.231-1.302c-2.816,0.55-3.703-3.955-8.209-3.065
		c-1.573-2.04-5.857-0.026-7.649-3.193c-1.791-3.153-5.293-0.127-8.433-4.191c-3.138-4.064,1.39-10.8-6.832-10.952
		c-8.223-0.137-6.219,7.08-12.871,8.974c-6.652,1.891-1.945,7.986-1.945,7.986s-0.694,5.398,4.7,9.028
		c1.131,0.759,2.164,1.161,3.118,1.363c0.248,3.699,1.474,8.377,4.278,11.671c2.364,2.769,3.028,1.482,1.956-1.544
		c-0.701-1.974-0.019-7.025,0.966-10.85c0.132,0.04,0.258,0.101,0.381,0.184c0.638,0.43,1.3,0.676,2.029,0.976
		c-2.452,4.284-2.416,10.094,3.086,17.351c14.382,19.003,38.019-0.596,47.804,9.487c1.251,1.291,2.168,2.52,2.819,3.71
		c-2.862,1.262-7.336,2.382-10.972,3.474c-4.01-0.943-7.471-3.088-13.587-1.5c-10.069,2.603-14.081,6.591-19.143,2.979
		c-5.06-3.601-4.064-5.825-12.651-2.556c-8.587,3.276-6.9,4.476-0.92,4.038c5.98-0.434,10.221,1.023,14.335,3.764
		c4.115,2.734,13.906-2.223,18.608-2.783c1.468-0.178,3.183-0.184,4.99-0.072c-1.014,0.665-1.62,1.124-1.62,1.124
		s-8.354,5.155-10.828,4.465c-1.421-0.391-3.591,0.336-5.671,1.345c-0.152-0.423-0.262-0.81-0.273-1.096
		c-0.06-1.76-0.647-2.296-1.286-0.416c-0.277,0.817-0.396,1.682-0.428,2.546c-0.795,0.459-1.54,0.911-2.153,1.312
		c-0.696,0.445-1.4,0.64-2.099,0.72c-0.907-1.551-1.636-3.142-1.666-4.031c-0.064-1.96-0.718-2.56-1.432-0.46
		c-0.494,1.443-0.575,3.041-0.433,4.556c-0.602,0.065-1.171,0.242-1.695,0.647c-0.705,0.542-1.457,0.853-2.223,1.037
		c-1.455-2.271-2.779-4.899-2.824-6.241c-0.078-2.451-0.897-3.193-1.79-0.578c-0.745,2.184-0.732,4.635-0.378,6.848
		c-1.942-0.137-3.462,0.003-3.838,2.277c-0.665,4.006,2.021,1.36,3.141,4.06c1.116,2.716-0.243,4.73,3.128,6.997
		c3.374,2.27,5.416-2.231,12.188-6.491c6.772-4.251,14.2-2.198,26.486-5.203c2.399-0.589,4.78-0.896,7.125-1.037
		c-4.138,6.443-5.201,24.379,15.178,20.981c15.273-2.546,28.977-0.684,22.865,11.432c0,0,6.491-7.874-0.655-12.611
		c-5.616-3.717-13.882-2.73-23.342-1.479c-11.812,1.562-18.325-8.872-11.448-17.387c0.273-0.336,0.546-0.679,0.82-1.019
		c8.381,0.029,16.128,1.736,22.128,0.56c2.999-0.593,6.125-1.284,9.121-2.202c1.448,1.172,2.414,1.847,2.414,1.847
		s-1.03,14.209,14.41,14.994c2.661,10.311,8.157,15.598,15.504,17.34c-0.284,11.519,4.849,14.965,10.358,17.066
		c0.46,8.829,7.795,13.76,14.78,13.659c2.288,11.649,7.676,13.142,13.929,12.55c4.749,7.982,14.419,11.812,19.578,8.887
		c3.057,4.87,9.854,7.6,15.647,8.233c-0.056,3.815,1.296,9.053,5.289,11.548c6.264,3.901,8.648,10.514,12.231,13.706
		c3.577,3.193,3.851,7.575,7.041,10.713c3.189,3.15,3.853,7.582,1.468,7.697c-2.387,0.113-8.791-2.621-11.153-6.066
		c-0.771-1.121-2.053-2.799-3.458-4.686c-0.235-1.717-0.671-3.134-1.381-3.525c0,0-0.461,0.004-1.195,0
		c-2.078-2.928-3.938-5.85-4.361-7.643c-1.052-4.483,3.01-8.753-8.073-12.033c-6.71-1.989-9.064-0.282-9.064-0.282
		s-3.924-3.626-7.762-1.309c-6.92,4.183-4.615,8.952-3.581,10.257c0.343,0.438,0.137-1.171,1.195-3.424
		c1.054-2.245,5.785-2.082,5.853,0.698c0.067,2.777,1.786,4.957,5.301,5.37c3.509,0.412,8.562-2.151,9.086,3.449
		c0,0-0.618,1.905,0.71,4.031c0.103,0.166,0.192,0.318,0.285,0.47c-0.754-0.084-1.426-0.181-1.94-0.304
		c-3.443-0.795-7.772-3.008-8.719,2.824c0,0-4.123,3.876-1.006,7.828c1.057,0.651,1.034-6.208,4.685-4.559
		c1.735,1.207,3.117,3.948,5.272,1.63c2.117-2.292,4.093-2.271,5.981-1.84c0.298,0.737,0.244,1.992-0.635,4.31
		c-2.298,6.056-4.639,5.781-7.761,5.409c-3.12-0.362-4.933-1.761-5.969,3.648c0,0-2.363,3.283-5.483,2.917
		c-3.122-0.369-2.229,2.108,0.456,2.824c2.686,0.709,6.036-0.872,6.036-0.872s-0.182,1.559,3.377,1.587
		c3.558,0.022,6.172-2.039,7.963-3.814c1.792-1.768,3.831-2.31,5.785-2.079c1.952,0.228,4.013,2.842,7.32,1.648
		c3.305-1.189,11.864,3.38,14.458,4.87c2.594,1.496,14.639,3.308,15.034-3.37c0.394-6.678-2.956-11.819-5.754-14.918
		c-2.802-3.102-3.787-4.798-3.373-8.308c0.416-3.511-5.966-9.802-7.363-14.715c-0.537-1.887-0.953-7.311-2.59-12.39
		c2.876-0.749,5.322-1.816,6.694-2.748c7.457,5.539,16.545-0.068,19.13-3.124c6.121,1.981,15.69-1.168,17.792-6.674
		c10.041,2.488,17.278,0.431,21.952-4.949c0,0,7.951,4.809,15.943-3.135c8.924,6.53,14.455,2.26,17.158-0.184
		c6.723,5.047,11.991,5.926,15.919,3.243c5.367,7.864,8.169,12.405,14.916,11.082c3.527,8.221,10.982,13.764,16.008,13.417
		c3.908,3.688,9.536,6.406,12.362,4.574c1.083,5.517,8.795,9.1,14.187,7.401c6.116,5.171,13.218,5.684,17.751,6.067
		c5.258,4.064,14.442,5.441,17.882,3.496c5.626,2.712,13.716,1.764,17.158-0.188c6.795,1.613,14.008,2.581,17.394-0.755
		c-0.432,1.945-0.681,4.02-0.651,6.244c0.033,2.328,4.203,11.147,12.783,11.411c8.581,0.257,19.708-6.266,22.123-3.445
		c2.412,2.812,3.78,3.423,6.56,2.827c2.78-0.586,4.049,1.327,1.766,6.009c-2.29,4.682-3.588,11.06-5.83,13.919
		c-2.245,2.864-1.307,6.385,3.186,7.13c0,0,3.644,6.558,9.588,4.284c0,0-7.569-6.854-5.648-8.124
		c1.922-1.272,5.38-2.726,4.106-4.646c-1.271-1.916-1.499-8.106,0.424-9.375c1.918-1.273,4.429,0.235,4.742,2.795
		c0.308,2.549-0.571,6.024,3.35,6.335c0,0,5.175,6.367,10.141,2.397c0,0-6.686-3.861-5.848-5.514
		c0.837-1.652,4.629-2.375,1.71-5.126c-2.921-2.76-5.848-5.514-5.931-8.353c-0.086-2.842,0.017-4.154,1.238-6.887
		c1.228-2.74,5.924-4.602,7.743-4.563c1.816,0.04,3.187,0.655,4.761-1.356l1.466-0.69c0,0,5.049-1.136,8.584,0.256
		c0,0-2.661-4.863-8.113-4.982c0,0-5.748-6.822-12.504-0.56c-6.759,6.259-4.266,5.434-6.759,6.259
		c-2.495,0.821-4.271-1.041-7.278-0.159c-2.997,0.882-3.534-1.385-5.984-2.383c-2.451-1.005-0.884-3.005-9.031,0.31
		c-8.15,3.316-11.137,0.047-10.418-2.621c0.4-1.522,3.198-4.584,4.501-8.196c2.406-1.171,4.429-2.809,5.295-3.674
		c3.186,0.015,10.063-3.886,12.768-6.328c2.701-2.44,22.227-13.283,46.829-4.736c24.602,8.536,54.957,20.41,73.753,5.89
		c18.805-14.516,25.024-41.21,47.205-41.746c22.185-0.542,46.058,7.51,68.155-3.199c22.093-10.706,38.568-27.319,42.922-44.092
		C800.626,89.706,796.157,105.864,789.271,112.95z M136.322,21.412c1.299-0.654,6.723,0.224,11.07,0.785
		c-7.847,3.055-18.931,5.289-25.836,7.734C128.546,25.721,135.161,21.994,136.322,21.412z M47.671,62.184
		c-13.55,2.434-25.951-5.893-25.208-17.568c0.103-1.652,0.412-3.033,0.871-4.209c0.989,0.669,2.128,1.689,3.453,3.316
		c-0.336,2.498-0.228,5.408,0.853,7.889c1.128,2.578,1.905,1.775,1.79-0.702c-0.041-0.886,0.434-2.365,1.128-3.941
		c2.47,1.095,5.049,0.687,7.323,0.63c0.09,1.529,0.367,3.069,0.978,4.468c1.126,2.582,1.904,1.776,1.79-0.698
		c-0.04-0.777,0.326-2.017,0.884-3.373c1.286,0.253,2.807,0.651,4.456,1.204c0.096,1.479,0.376,2.968,0.971,4.328
		c1.126,2.582,1.903,1.776,1.79-0.701c-0.03-0.575,0.171-1.414,0.5-2.357c2.631,1.168,5.333,2.751,7.663,4.913
		c1.864,1.728,4.514,3.308,7.321,4.61C59.419,59.509,54.442,60.973,47.671,62.184z M77.522,67.919
		c-0.757-1.266-1.849-2.488-3.366-3.656c-0.695-0.535-1.365-0.994-2.028-1.421c2.895,0.756,5.279,1.023,6.271,0.611
		C78.399,63.453,82.157,63.276,77.522,67.919z"></path>
</g>
</svg>
