<!--?xml version="1.0" encoding="utf-8"?-->
<!-- Generator: Adobe Illustrator 22.1.0, SVG Export Plug-In . SVG Version: 6.00 Build 0)  -->
<svg version="1.1" id="_x32_" xmlns="http://www.w3.org/2000/svg" xmlns:xlink="http://www.w3.org/1999/xlink" x="0px" y="0px" viewBox="0 0 699.218 800" style="enable-background:new 0 0 699.218 800;" xml:space="preserve">
<g>
	<path class="st0" d="M695.902,577.926c-15.107-89.073-153.997-83.033-227.964-30.195c-37.206,26.578-146.752,67.317-235.945,54.182
		c-0.422-7.367-0.061-16.451-7.295-17.494c0,0,11.502,2.218,17.204-4.756c5.715-6.975,14.046-7.758,18.049-6.336
		c4.003,1.423,8.621,8.319,13.829,13.184c5.221,4.859,8.994,5.823,14.431-2.744c0,0,9.428-0.777,9.356-9.428
		c0,0-9.669,6.685-12.406,3.455c0,0,0.759-3.859-3.207-4.141c-3.978-0.29-7.512-0.796-12.418-2.912
		c-4.907-2.128-3.858-10.761-1.507-12.545c2.363-1.785,7.318-4.908,11.562-3.014c4.232,1.881,6.33-1.508,5.944-6.523
		c0,0,4.485-4.033,11.236,0.616c0,0-5.1-7.813-13.829-5.667c0,0-3.243-5.281-7.535-1.929c-4.28,3.352-9.272,5.323-12.431,9.838
		c-3.147,4.503-12.997-0.88-10.754-6.076c2.255-5.208,7.367-10.139,1.495-15.236c0,0-3.147-1.869,4.364-7.451
		c0,0-6.269-3.728-9.718,5.549c0,0-7.33-2.613-7.933,5.811c-0.603,8.409,6.486,16.945,5.365,23.299
		c-1.109,6.354-5.51,6.293-13.129,8.464c-7.632,2.158-18.121,4.051-22.956,4.208c-4.823,0.156-22.364,5.485-11.104,16.686
		c2.52,2.507,3.75,5.486,4.389,8.621c-24.957-7.783-47.165-21.033-64.165-41.619c-72.665-88.039-25.018-167.024,79.464-208.212
		c0.844,5.576,1.845,11.324,3.086,17.295c3.979,21.108,7.861,26.205,4.702,32.628c-3.159,6.432-14.612,18.95-10.706,27.61
		c3.894,8.659,5.353,12.915,10.61,11.595c0,0,2.761,9.519,18.989,9.693c0,0-9.018-8.331-8.476-12.325
		c0.542-3.994,9.971,1.353,5.8-5.305c-4.172-6.658-6.029-7.93-3.81-16.771c2.219-8.837,9.597-10.878,9.597-10.878
		s11.43,5.609,10.61,11.595c-0.808,5.987-2.074,7.846,1.64,10.381c3.713,2.534,11.2,14.727,14.926,17.262
		c3.714,2.541,1.893-13.959-0.82-16.361c-2.724-2.402,9.067-6.893,1.484-10.972c-7.559-4.075-4.763-9.79-5.076-14.908
		c-0.325-5.124-2.23-13.503,5.884-13.422c8.114,0.084,10.658-3.629,14.963,2.035c4.304,5.666,1.23,13.373,6.209,14.048
		c4.991,0.681,1.507,11.372-1.169,16.096c0,0,10.199-7.759,10.151-14.875c-0.06-7.116,11.466-9.609,3.159-15.824
		c-8.294-6.2-9.609-11.462-16.324-14.402c-6.704-2.944-32.263,5.763-38.291-2.167c-6.041-7.921-7.633-11.191-10.212-14.587
		c-1.7-2.228-2.798-8.735-2.665-16.005c0.663-0.202,1.302-0.416,1.953-0.618c17.699-5.465,36.543-10.957,55.894-16.644
		c7.125,12.868,14.842,24.249,22.473,34.081c-4.859-2.396-9.537-5.022-11.815-7.306c-4.581-4.582-13.286-8.699-20.617-10.99
		c-7.33-2.294-11.453-4.584-6.872,0.458c4.582,5.034,11.454,5.492,15.119,8.699c3.665,3.207,24.74,21.075,27.489,23.824
		c2.749,2.749,10.984,8.25,13.745,9.624c2.242,1.118,7.836,4.675,11.803,7.195c5.558,5.067,10.188,8.729,13.286,10.893
		c-3.207-0.262-6.125-0.021-12.262-1.139c-10.079-1.833-11.912-0.458-11.912-0.458s2.749,10.534,10.995,14.203
		c8.247,3.665,20.617,2.749,14.661,3.665c-5.968,0.916-5.509,3.207-1.374,2.291c4.124-0.916,7.789,7.782,9.622,9.16
		c1.82,1.374,4.569,6.872-0.917,4.581c-5.498-2.29-10.549-11.909-11.008-8.241c-0.445,3.66,6.427,11.448,11.008,12.825
		c4.582,1.375,15.578,10.074,10.068,8.699c-5.498-1.374-8.693,0-16.023-2.291c-7.342-2.291-8.705-6.866-10.079-5.491
		c-1.375,1.374,8.247,12.364,20.605,12.364c12.382,0,9.163,3.669,13.298,5.042c4.123,1.375,7.776,8.25,3.207,5.959
		c-4.582-2.294-11.454-2.294-16.952-3.21c-5.498-0.916-2.713,2.758,4.123,3.669c6.872,0.916,10.537,2.749,15.119,5.949
		c4.582,3.208,10.984,5.957,15.577,4.582c4.582-1.374,10.996-0.458,6.861,0.458c-4.112,0.917-6.402,8.25-6.402,8.25
		s3.665-4.582,10.537-5.498c6.86-0.916,2.279,2.749,7.318,2.291c0.712-0.063,1.435-0.063,2.17-0.036
		c-1.953,1.543-4.521,1.875-7.692,3.098c-3.677,1.417-0.904,1.658,6.004,0.591c5.907-0.91,8.547-1.278,10.585-2.189
		c1.049,0.214,1.966,0.368,2.677,0.368c0.88,0,1.374,0.229,1.459,0.612c-2.315,0.826-4.847,2.068-7.523,3.964
		c-3.822,1.23-4.714,2.174-2.99,2.355c-6.535,5.63-13.793,15.296-21.063,31.955c-19.242,44.078-57.703-24.047-84.154-29.656
		c0,0,21.641,12.825,38.472,31.259c16.831,18.428,38.461,27.248,48.082,4.805c8.813-20.544,11.586-35.712,35.977-40.585
		c0.748,0.953,1.543,1.908,2.447,2.861c-0.639,0.265-1.447,0.494-2.46,0.674c-7.789,1.375-8.247,2.291-2.291,3.207
		c3.967,0.612,6.824,0.527,8.488-0.347c1.242,1.055,2.544,2.047,3.871,2.951c-3.544,0.027-7.27-0.889-4.774,0.31
		c2.122,1.016,5.582,1.426,7.788,1.592c0.325,0.186,0.675,0.347,1.001,0.521c-1.953,0.549-3.618,1.311-3.014,2.276
		c1.181,1.862,9.139,0.542,10.851,0.229c1.929,0.148,3.69-0.166,5.112-1.119c6.872-4.581,9.621-5.033,13.744-7.33
		c4.124-2.291,4.124-8.701,6.873-10.534c0.82-0.554,1.772-1.263,2.556-2.028c0.47,0.181,0.989,0.383,1.567,0.654
		c5.956,2.749,5.956-0.458,6.872-5.043c0-5.922-1.265-8.677-3.436-10.407c-1.483-2.643-3.509-6.019-3.629-4.79
		c-0.061,0.742-0.144,1.679-0.096,2.743c-0.639-0.272-1.303-0.536-2.002-0.829c-0.893-0.374-1.519-0.778-1.978-1.2
		c3.497-4.883,11.707-3.882,20.918-0.667c10.827,3.771,25.029,0,33.818-6.04c8.802-6.043,4.063-22.645,0-32.456
		c-4.051-9.817-6.088-23.398-6.088-23.398c-6.751,5.283,15.565,40,5.414,50.568c-10.14,10.57-29.081,9.814-41.945,2.264
		c-7.523-4.422-12.262-1.327-14.902,2.751c-0.398-0.606-0.916-1.236-1.652-1.905c-5.039-4.581-11.912,2.294-11.912,2.294
		s0-5.959-2.291-5.042c-2.29,0.916-4.581-2.749-5.039-4.582c-0.458-1.827-1.375-3.66-4.582-3.202
		c-2.833,0.401-5.666-6.007-5.968-10.347c5.052-1.721,4.232-9.317,3.822-11.782c0.301-0.815,0.591-1.652,0.832-2.508
		c3.014,0.576,7.258,1.257,6.354,0.356c-1.109-1.118-2.845-2.821-5.666-3.668c0.048-0.352,0.096-0.699,0.12-1.04
		c1.844-0.537,4.268-1.347,5.088-2.16c0.916-0.923-2.833-1.221-5.45-1.327c-2.062-5.845-11.695-8.907-13.335-10.13
		c-1.832-1.374-5.039-5.956-2.29-10.54c2.749-4.575-9.838-21.102-10.995-21.991c-1.676-1.291-3.834-2.393-6.185-3.256
		c-0.904-5.263-2.399-11.665-2.966-13.693c-0.928-3.208-1.845-9.16-1.845-13.284c0-4.124-0.458-10.54-1.374-13.289
		c-0.917-2.749-1.375-10.993-1.833-14.658c-0.458-3.669-0.916-14.2-0.916-16.036c0-0.916-0.229-4.572-0.676-8.515
		c11.381-4.518,22.426-9.241,32.987-14.208c0.603,0.066,27.187,3.068,31.672,7.541c4.521,4.534,2.267,7.548-1.519,9.061
		c-3.761,1.51-19.616,9.057-21.123,17.359c-1.519,8.303,1.508,11.324,1.508,11.324s5.28,4.534,8.307,6.791
		c3.014,2.27,6.028,6.797,14.335,8.313c0,0-6.041-8.313-7.547-10.57c-1.507-2.27-3.026-5.29,0-5.29c3.014,0,4.521-6.034,3.774-8.298
		c-0.759-2.27-1.507-8.304,2.266-9.814c3.774-1.511,23.401-1.511,23.401-1.511s7.548,10.568,6.788,16.602
		c-0.759,6.041-6.788,6.041-5.28,11.324c1.507,5.283,7.547,4.536,6.788,9.063c-0.748,4.527-2.266,9.811-7.535,12.831
		c-5.293,3.021,3.761,5.278,8.294,0c4.521-5.283,6.788-15.095,6.788-15.095s6.8,1.504,6.04-4.536
		c-0.759-6.035-2.266-12.832-2.266-15.095c0-2.264,0-8.298-4.522-14.341c-4.533-6.037,0-8.301,3.774-8.301
		c3.773,0,11.321,3.774,15.095,6.037c3.773,2.263,0,4.53,5.292,8.307c5.269,3.77,1.507,14.338-5.292,18.115
		c0,0,5.292,2.257,9.814-3.777c4.534-6.041,3.774-15.852,3.774-15.852s5.281-2.263,3.014-8.301
		c-2.254-6.041-6.04-11.327-10.561-11.327c-4.534,0-15.854-12.075-27.175-11.321c-11.321,0.757-7.547-4.53-18.108-4.53
		c-10.574,0-15.855-0.753-23.402-8.301c0,0,0,0-0.012,0c39.485-22.368,68.373-49.459,76.161-83.931
		c8.547-37.86-3.027-175.117-157.012-163.04C253.561,14.825,258.095,132.578,271.683,233.722c0.097,0.763,0.217,1.51,0.338,2.267
		c-5.149,0.904-9.826,1.666-13.926,2.263c-3.122,0.455-6.282,0.991-9.44,1.553c-4.461-1.685-8.017-2.662-10.188-2.598
		c-3.05,0.087-6.39,2.384-9.573,6.757c-64.465,15.555-131.488,50.209-165.547,80.338C20.679,362.048-22.7,463.19,18.062,564.339
		c20.05,49.756,59.836,83.799,109.823,103.209c-1.64,1.465-3.243,3.075-4.762,4.901c-2.412,2.911-6.559,18.205,3.774,27.579
		c10.332,9.368,30.973,13.045,30.985,19.067c0.013,6.034,1.061,8.229,5.124,10.423c4.063,2.207,3.605,5.914-4.147,9.283
		c-7.765,3.376-16.096,9.892-21.895,11.056c-5.799,1.175-8.343,6.504-3.569,12.177c0,0-2.411,11.948,7.33,15.408
		c0,0-2.122-16.451,1.592-16.005c3.713,0.458,9.513,2.309,9.959-1.405c0.458-3.713,6.716-11.604,10.416-11.146
		c3.714,0.458,5.233,4.973,2.918,8.458c-2.315,3.479-7.065,6.854-2.532,11.363c0,0-0.325,13.335,10.007,13.66
		c0,0-4.196-11.815-1.423-12.985c2.785-1.163,8.235,1.959,7.524-4.533c-0.699-6.492-1.423-12.979,1.483-16.584
		c2.882-3.593,4.389-5.1,8.79-7.197c4.4-2.098,12.177,0.554,14.383,2.52c2.207,1.965,3.256,4.166,7.318,3.346l2.532,0.687
		c0,0,7.439,3.93,10.344,9.373c0,0,1.833-8.807-4.774-14.703c0,0,0.084-14.498-14.866-13.889
		c-14.963,0.603-11.008,2.225-14.963,0.603c-3.942-1.61-4.183-5.782-8.825-7.861c-4.642-2.08-2.905-5.443-4.883-9.265
		c-1.977-3.822,2.074-4.642-11.502-9.139c-13.563-4.497-13.816-11.683-10.103-14.239c2.604-1.802,12.322-2.652,17.844-8.072
		c41.389,8.524,87.06,8.934,132.935,1.658c123.784-19.622,203.803-78.5,246.073-107.182c42.258-28.683,105.06-8.765,119.251,19.622
		c11.32,22.63-0.724,48.28-16.675,69.554c-8.994,3.955-20.424-0.453-21.063,5.932c-1.35,13.521-6.028,19.622-19.616,16.602
		c-13.6-3.014-21.147-1.508-19.64,12.081c1.519,13.588-10.899,28.953-17.349,12.834c-3.014-7.547-9.814,12.075-3.014,15.855
		c8.837,4.913,18.857,10.568,6.788,15.095c-12.08,4.527-23.401,1.507-22.654,21.135c0.47,12.159-3.014,30.189-25.657,24.149
		c0,0,21.135,19.628,28.683,4.527c7.548-15.089,4.534-24.149,13.588-25.656c9.055-1.513-4.534,13.588,9.055,15.089
		c0,0-3.015-12.069,7.547-18.109c10.573-6.041,21.147-7.547,19.628-16.608c-1.507-9.054,13.057-25.994,16.614-13.582
		c3.014,10.561,1.508,19.622-12.08,27.17c0,0,22.642-3.021,24.149-19.622c1.519-16.608-4.521-21.135,3.026-30.201
		c7.548-9.055,13.841,4.015,15.095-6.035c1.507-12.081-0.759-13.587,3.774-21.135c1.121-1.875,1.543-4.208,1.555-6.649
		C685.112,652.905,702.979,619.744,695.902,577.926z M424.679,282.828c0.458,5.037-0.916,10.079-1.832,12.831
		c-0.916,2.743-0.916,8.702-0.916,14.2c0,5.495,0.916,16.494,0.916,19.701c0,3.207-2.303,12.367-1.845,16.49
		c0.265,2.327,0.084,6.998-0.12,10.619c-1.471,0.72-2.424,1.007-3.4,1.45c-20.532-20.117-34.554-40.501-44.283-60.653
		c17.494-5.712,34.771-11.734,51.361-18.181C424.547,280.67,424.583,281.909,424.679,282.828z M347.168,170.32
		c-6.04-57.367,37.737-102.658,83.033-98.131c45.284,4.53,73.967,48.31,45.284,87.563c-10.513,14.377-35.688,27.758-65.853,39.311
		c-8.03-3.913-15.396-6.704-20.11-6.704c-10.899,0-11.092,9.649-14.564,18.618c-7.728,2.396-15.54,4.676-23.305,6.821
		C349.688,201.106,348.723,185.155,347.168,170.32z"></path>
</g>
</svg>
