<!--?xml version="1.0" encoding="utf-8"?-->
<!-- Generator: Adobe Illustrator 22.1.0, SVG Export Plug-In . SVG Version: 6.00 Build 0)  -->
<svg version="1.1" id="_x35_" xmlns="http://www.w3.org/2000/svg" xmlns:xlink="http://www.w3.org/1999/xlink" x="0px" y="0px" viewBox="0 0 365.913 800" style="width: 229px;" xml:space="preserve">
<g>
	<path class="st0" d="M361.675,469.038c0,0,4.662-5.512-2.159-9.134c-6.817-3.622-16.332-0.501-21.263-3.818
		c-4.933-3.307-3.389-7.156-2.62-14.671c0.771-7.511,2.733-17.454,4.236-21.77c1.503-4.308,2.982-21.72-10.171-15.907
		c-11.672,5.163-15.026,4.046-23.963,14.1c-4.804,5.401-7.049,7.937-8.089,9.109c-1.831-0.738-5.64-1.603-8.562-1.439
		c-3.598-10.032-9.943-20.252-18.868-30.88c-28.251-33.64-78.152-36.618-109.127-58.239c-22.001-15.365-18.762-32.199-11.836-44.935
		c4.62,0.82,12.867-1.7,15.539-0.721c3.904,1.421,4.126,13.086,9.326,14.235c5.197,1.151,4.388,5.828,10.123,15.878
		c5.734,10.047,11.627,3.844,16.188,1.977c4.56-1.867,9.799-4.787,15.403-5.975c5.607-1.188,5.334-2.472,8.808-0.964
		c3.476,1.517,5.161,5.221,8.232,9.074c3.068,3.857,7.092,7.952,11.493,7.469c4.405-0.481,3.243-3.837,3.243-3.837
		c9.577-1.584,10.546-7.642,10.546-7.642c-5.92,3.955-10.009,1.669-10.009,1.669c-3.554-8.253-7.473-3.371-10.335-4.112
		c-2.862-0.749-4.203-4.971-3.279-6.97c0.929-1.997-1.344-4.221-0.078-6.737c1.268-2.527,5.057-3.777,8.103-2.17
		c3.044,1.605,5.669-2.999,10.593-3.144c4.928-0.144,0,0,6.653-0.51c6.649-0.51,5.187-7.411,5.187-7.411
		c11.433-5.575,3.086-17.325,3.086-17.325c3.279,6.97-5.749,11.131-5.749,11.131c-1.23-1.538-3.594-4.194-7.2-2.08
		c-3.607,2.117-7.527,7.01-10.389,6.261c-2.86-0.745-2.654,2.365-6.099,3.097c-3.451,0.734-8.495-1.805-10.247-3.689
		c-1.752-1.878-1.736-8.188,0.8-13.231c2.536-5.043-1.436-4.655-1.436-4.655c-1.685-3.693,4.637-9.992,4.637-9.992
		c-9.85,0.286-10.976,7.731-10.976,7.731c-7.329,1.554-5.407,10.608-3.973,15.264c1.439,4.649,1.373,6.467,1.373,6.467
		c-7.489,2.938-4.053,8.52-4.458,10.861c-0.404,2.336-7.094,6.908-13.04,8.614c-5.944,1.714-7.29-2.507-7.955-7.774
		c-0.667-5.267-5.983-9.094-8.348-11.746c-2.366-2.653-3.056-10.164-3.056-10.164c3.146-7.404-2.915-14.283-7.205-17.696
		c20.542-17.23,53.688-42.17,71.594-57.489c9.003-7.702,15.172-17.124,18.769-27.298c1.96-0.078,2.997-1.303,2.997-1.303
		c-0.559-0.63-1.124-1.69-1.642-2.986c1.208-4.354,1.971-8.817,2.29-13.329c2.809,2.009,2.973,3.909,2.973,3.909
		c0.365-4.441-1.251-10.023-3.042-14.947c-0.294-3.572-0.857-7.13-1.667-10.644c3.92,3.174,5.02,6.948,5.02,6.948
		s0.306-7.476-2.159-14.719c-2.468-7.24-9.48-13.175-5.627-11.634c3.853,1.541,8.322-0.694,8.322-0.694s0,0-7.782-4.004
		c-4.252-2.19-7.482-5.571-10.213-8.89c5.119-0.173,10.264,2.057,10.264,2.057c-3.624-3.826-9.814-5.516-13.554-6.221
		c-0.954-1.213-1.865-2.341-2.758-3.281c-4.082-4.316,8.322-0.696,8.322-0.696c-5.521-4.305-11.497-6.744-16.539-8.13
		c4.625,0.185,8.089-0.164,8.089-0.164c-4.365-0.257-14.587-3.749-9.04-4.212c5.549-0.461,8.989-3.851,8.989-3.851
		c-8.249,0.688-8.269,0.018-13.099-0.771c-3.088-0.506-6.376-1.446-9.056-2.328c0.273-0.945,0.184-2.122,1.135-4.055
		c1.589-3.237,0,0,3.645-0.924c3.647-0.924,15.153,3.079,17.826,5.341c2.671,2.259,9.861,6.626,11.865,8.322
		c2.004,1.693,7.859,4.93,11.608,5.239c3.748,0.308-2.929-5.345-6.782-6.886c-3.851-1.539-10.067-9.091-11.504-11.453
		c-1.441-2.361,6.265,0.718,8.781,1.129c2.519,0.41,15.153,3.084,20.085,2.673c4.931-0.412,19.467,2.721,25.684,2.825
		c6.214,0.102,4.571-4.729,0.924-3.802c-3.647,0.924-17.773-4.726-23.989-4.829c-6.214-0.104-18.183-2.208-26.557-5.852
		c-8.371-3.647-13.867-2.569-19.416-2.106c-5.547,0.463-19.622,2.877-21.161-0.721c-1.541-3.594-1.49-2.978-8.269-2.412
		c-1.131-6.114-15.718-17.312-24.194-14.743c-8.477,2.569-18.084-0.975-18.084-0.975c-6.163-6.932-15.357-5.547-15.357-5.547
		c-0.874-3.029-10.889-4.055-10.889-4.055c0.308-3.751-6.677-5.651-11.814-7.708c-1.492-2.975-1.082-5.493-4.469-8.936
		c0.718-6.265,2-13.199-7.551-16.126c-9.555-2.929-15.051,13.044-15.051,13.044c-6.779,0.566-8.987,3.855-9.708,10.123
		c-0.368,3.214,2.332,6.008,5.048,7.967c-12.116,0.222-26.854,3.062-31.562,15.603c-6.857,18.261-3.543,35.675,15.72,43.379
		c19.261,7.702,17.645,32.975,0.924,33.438c-16.72,0.462-26.04,11.479-13.173,20.647c0,0-12.28-13.251,4.21-16.485
		c10.994-2.159,24.065-1.698,25.067-15.745c0.885-12.402-4.678-18.855-16.283-24.089c-11.61-5.241-22.89-21.178-13.282-40.171
		c6.631-13.099,23.273-14.087,35.107-12.816c0.071,0.038,0.151,0.077,0.221,0.116c-0.232,1.707-0.161,4.123,0.745,7.484
		c0,0,0.405-3.483,1.874-6.085c1.926,1.062,4.137,2.349,5.852,3.56c-0.177,1.383-0.217,3.215,0.466,4.691
		c0,0,0.616-1.725,1.563-3.058c0.055,0.051,0.108,0.107,0.158,0.158c1.926,2.037,3.498,3.479,5.817,4.458
		c0.138,0.967,0.344,2.031,0.668,3.222c0,0,0.14-1.226,0.561-2.769c0.639,0.204,1.328,0.381,2.098,0.534
		c0.762,0.149,1.334,0.57,1.797,1.146c-0.222,1.701-0.14,4.102,0.754,7.418c0,0,0.202-1.731,0.831-3.664
		c0.756,2.796,1.348,5.821,3.758,6.298c4.416,0.871,4.879,6.423,7.551,8.681c2.669,2.257,7.69,8.68,19.649,12.594
		c6.762,2.213,3.55,3.818-1.477,4.31c-3.124-4.496-8.892-10.921-16.363-10.905c-11.479,0.027-13.714-19.339-25.14-18.695
		c-11.431,0.643-18.855-2.771-20.163-7.318c-1.308-4.545-1.976-1.388-1.412,1.667c0.565,3.059,3.826,8.682,10.12,9.711
		c6.289,1.026,13.173,1.693,15.33,5.238c2.157,3.543,3.57,9.322,10.273,11.555c4.989,1.663,7.261,3.727,8.824,7.296
		c-2.197-0.108-4.23-0.115-5.703,0.007c-2.84,0.237-7.75,1.825-11.72,0.747c0.19-1.252,0.432-2.131,0.432-2.131
		c-0.492,0.65-0.907,1.26-1.281,1.851c-0.88-0.345-1.698-0.836-2.417-1.543c-4.057-4.008-7.462-2.015-11.827-2.272
		c-0.452-0.029-0.909-0.08-1.363-0.146c0.157-1.94,0.594-3.516,0.594-3.516c-0.897,1.186-1.576,2.258-2.11,3.243
		c-1.651-0.364-3.184-0.876-4.31-1.303c-0.306-2.902,0.576-6.101,0.576-6.101c-1.383,1.829-2.274,3.409-2.846,4.759
		c-4.64-6.13-6.642-0.25-6.642-0.25c-1.645,2.618,1.964,6.82,1.964,6.82c-3.545,2.157-1.924,10.402,9.633,9.437
		c11.885-0.991,24.63,1.308,27.98,3.658c0.668,0.468,1.725,1.295,3.068,2.359c0.612,1.576,1.133,3.649,1.157,6.194
		c0,0,0.918-2.035,1.109-4.405l0.004,0.003c2.217,3.864,8.735,11.958,10.176,16.962c0,0,1.264-5.813-0.22-9.431
		c0.078,0.058,0.155,0.113,0.238,0.169c1.206,1.629,5.223,7.212,7.205,12.149c0,0-1.195-5.95-2.024-7.511
		c-0.827-1.561,4.817,4.72,11.211,8.841l-2.946-4.642c0,0,6.203,1.811,9.726,7.801c0,0-0.479-2.987-2.022-4.72
		c-1.492-1.676,9.683,4.746,13.494,14.399c-0.953-2.534-3.724-9.374-6.927-12.646c1.838,1.699,7.211,6.46,11.734,8.358
		c0,0-6.491-5.276-7.628-7.741c0,0,10.694,5.786,13.474,8.444l-5.114-5.881c0,0,9.091,5.757,10.071,6.372
		c0,0-1.627-1.986-3.484-4.164c1.185,0.616,2.431,1.299,3.758,2.066c14.999,8.68,21.575,20.543,8.065,44.634
		c-10.383,18.518-43.855,37.125-76.121,60.003c-5.299-1.177-12.087-0.834-19.549,4.024c-17.221,11.211-32.937,23.694-37.677,17.104
		c-4.735-6.583-1.933-18.388-2.935-22.964c-1.002-4.569-6.884-11.839-9.529-13.789c-2.647-1.951-6.498-7.218-5.137-9.502
		c1.361-2.286,3.826-6.216,2.72-8.294c0,0,5.547-4.19,7.296-5.573c1.747-1.388,7.139-3.7,8.628-4.445
		c1.49-0.747,4.367-7.192,1.027-10.016c0,0,3.416-11.147-4.21-13.306c0,0,3.004,9.994-0.643,10.918
		c-3.647,0.922-3.647,0.922-3.647,0.922s-2.698,1.157-2.441,4.236c0.257,3.086-2.492,3.625-4.571,4.727
		c-2.08,1.106-8.859,1.671-11.38,1.261c-2.516-0.412-3.72-0.003-3.977-3.082c-0.257-3.082-3.931-13.637-4.035-14.871
		c-0.102-1.233-2.953-13.098-13.894-10.326c0,0-3.571-5.595-12.765-0.483c0,0,9.427,1.386,8.808,5.159
		c-0.614,3.777-3.977,4.367,0.953,7.679c4.93,3.314,7.396,3.108,10.092,9.4c2.701,6.292,4.19,9.271,2.21,11.61
		c-1.977,2.337-1.621,2.926-5.085,2.286c-3.467-0.643-8.294,1.002-11.275-1.233c-2.978-2.234-7.166-4.056-9.605,3.904
		c0,0-4.445-1.179-6.522,7.372c0,0,6.01-6.088,7.217-2.773c1.206,3.312,2.822,4.108,5.187,2.669c2.364-1.436,8.191-2.235,9.476-1.72
		c1.286,0.514,7.989,2.747,10.761,2.516c0,0,0.257,3.081,4.677,7.677c4.419,4.598,7.578,20.165,8.811,23.781
		c1.23,3.622-6.857,33.159,11.12,32.902c9.116-0.133,19.738-1.344,29.654-2.042c-5.163,7.675-8.814,16.246-10.935,25.178
		c-3.37,3.356-13.455,15.529-1.843,31.897c0,0-4.93,7.859,5.163,17.261c0,0-0.616,14.946,12.019,21.34
		c0,0,3.332,10.954,17.999,12.827c1.618,0.978,3.294,1.905,5.026,2.776c2.427,3.472,8.251,9.34,20.045,9.666
		c0,0,8.863,11.541,23.624,9.322c0.71,0.306,1.416,0.603,2.122,0.9c1.506,1.805,5.509,5.245,14.658,6.287
		c1.86,0.824,3.68,1.633,5.461,2.445c1.601,1.585,4.6,3.64,9.918,4.7c16.873,8.382,28.892,16.758,32.915,27.076
		c4.469,11.453,4.388,19.748-0.65,29.911c-1.04-0.51-2.19-0.949-3.481-1.295c-2.983-0.811-12.16,1.996-14.798,11.617
		c-2.638,9.608-10.408-1.507-14.427-3.955c-4.018-2.461-9.44-3.866-12.586-8.074c-3.142-4.194-11.969-7.973-20.283-6.673
		c-8.311,1.299-10.686,9.076-10.953,15.292c-0.273,6.208-4.93,21.154-11.584,23.943c-6.65,2.798-13.478,6.811-16.888,4.443
		c-3.41-2.368-8.739-4.39-11.448-7.276c-2.707-2.891-8.998-6.922-12.767-2.47c-3.767,4.452-6.132,7.861-3.691,12.588
		c0,0-10.768,5.32-4.312,16.884c0,0,4.306-12.503,9.291-12.414c0,0,1.565,6.473,6.292,4.035c4.726-2.443,13.563-3.037,16.358-0.763
		c2.796,2.279,0.253,6.912-3.596,7.608c-3.853,0.692-6.999,0.861-11.903,4.523c-4.909,3.666-6.66,7.169-2.035,14.073
		c0,0-3.507,6.997,5.403,14.534c0,0-0.942-15.137,2.122-14.698c3.061,0.447,7.956,1.153,9.712-2.341
		c1.754-3.494-0.17-3.148,4.033-6.292c4.203-3.135,10.855-5.923,13.996-1.729c3.144,4.207,1.215,8.93,9.346,8.845
		c0,0,8.751,0.018,7.773,11.124c0,0,7.444-8.3,1.33-13.554c0,0,5.604-4.195,1.94-9.094c-5.039-6.735-7.955-5.52-11.273-8.499
		c-3.319-2.98,2.806-6.474,1.678-11.639c-1.128-5.157,5.265-10.477,9.467-13.63c4.205-3.135,4.041-10.659,8.59-11.883
		c4.552-1.214,8.249,3.131,19.029,8.425c9.708,4.78,11.745,6.336,12.173,12.02c0.078,1.037,0.317,2.039,0.71,2.984
		c-0.348,0.43-0.687,0.851-1.042,1.291c-28.714,35.285,2.467,89.165,33.595,105.184c31.127,16.033,56.964,20.701,64.054,46.183
		c7.09,25.472-4.443,36.052-38.601,50.692c-6.963,2.993-11.867,6.864-15.261,11.133c-4.815,0.301-11.156,3.161-16.596,13.829
		c-8.422,16.534,10.406,35.449-4.622,45.075c0,0,13.716-3.002,10.788-15.793c0,0,6.32,19.957-10.478,30.665
		c0,0,16.493-3.237,18.953-18.339c0,0,0.412,8.651-0.694,10.304c0,0,11.071-16.135,9.839-23.478c0,0,1.771,2.647,1.233,7.343
		c0,0,6.573-14.197,6.726-23.526c0.188-11.36,3.549-15.413-0.816-19.881c9.105-4.08,19.633-5.338,26.709-5.928
		c64.096-20.338,48.159-77.456,27.253-104.892c-20.908-27.424-53.728-26.55-69.858-56.24c-16.131-29.684,5.263-41.084,34.232-73.292
		c7.085-7.879,12.282-15.607,15.687-23.26c5.27-1.286,10.805-4.735,12.459-10.331c2.543-8.593-0.23-13.953,5.664-15.829
		c5.853-1.88,12.122-4.261,16.962-12.896c-0.74,1.279-5.332,9.744-1.744,16.74c3.888,7.586,1.733,15.217-0.81,18.224
		c-2.542,3.006-9.863,4.54-15.678,7.36c-5.819,2.816-7.898,5.773-2.58,13.714c0,0-2.543,8.593,4.7,11.71
		c0,0-2.312-10.988,1.308-12.211c0,0,2.969,2.084,4.547-1.308c1.58-3.396,3.197-6.323,6.626-9.865
		c3.43-3.543,10.287,0.545,10.978,3.272c0.696,2.736,1.619,8.251-1.386,11.293c-3.006,3.046-0.885,6.123,3.43,7.626
		c0,0,1.849,5.431-4.316,9.666c0,0,8.247-1.622,9.4-10.092c0,0,5.512-0.922,4.159-5.932c-1.345-5.006-1.308-10.136-4.006-14.565
		c-2.695-4.43,5.124-11.129,8.706-7.236c3.585,3.889,5.972,10.207,12.213,6.89c0,0,2.621-2.079,4.74,6.58
		C363.025,479.621,368.261,475.467,361.675,469.038z M228.47,87.466c0,0,0.1,0.338,0.286,0.96
		C228.479,88.09,228.373,87.773,228.47,87.466z M190.882,132.737l0.548,0.63C191.321,133.184,191.13,132.972,190.882,132.737z
		 M180.587,137.295c0,0-0.107-0.308-0.3-0.825C180.392,136.743,180.491,137.015,180.587,137.295z"></path>
</g>
</svg>
